<?xml version="1.0" standalone="no"?>
<!DOCTYPE svg PUBLIC "-//W3C//DTD SVG 20010904//EN"
 "http://www.w3.org/TR/2001/REC-SVG-20010904/DTD/svg10.dtd">
<svg version="1.0" xmlns="http://www.w3.org/2000/svg"
 width="700.000000pt" height="700.000000pt" viewBox="0 0 700.000000 700.000000"
 preserveAspectRatio="xMidYMid meet">
<metadata>
Created by potrace 1.14, written by Peter Selinger 2001-2017
</metadata>
<g transform="translate(0.000000,700.000000) scale(0.100000,-0.100000)"
fill="#000000" stroke="none">
<path d="M3377 6974 c-1 -1 -51 -4 -112 -8 -60 -3 -126 -8 -145 -11 -19 -3
-56 -7 -81 -10 -177 -20 -474 -90 -674 -158 -173 -59 -445 -181 -570 -254
-331 -196 -527 -345 -765 -583 -135 -136 -159 -163 -265 -295 -242 -303 -441
-666 -566 -1034 -48 -140 -111 -376 -123 -457 -4 -22 -9 -51 -11 -64 -11 -51
-22 -132 -30 -200 -2 -25 -7 -72 -11 -105 -9 -86 -12 -475 -3 -548 4 -34 10
-93 13 -130 7 -79 13 -123 26 -192 5 -27 12 -61 14 -75 33 -184 122 -492 179
-621 8 -19 27 -63 42 -99 216 -510 586 -992 1030 -1346 305 -242 655 -435
1016 -562 93 -33 264 -84 324 -97 6 -1 24 -5 40 -9 120 -28 135 -31 215 -42
25 -3 52 -7 60 -9 14 -4 64 -11 145 -21 195 -22 600 -22 755 1 14 2 48 6 75
10 116 14 250 39 399 77 729 182 1376 593 1853 1178 233 285 439 645 565 984
36 98 106 326 113 369 3 18 10 48 15 67 15 57 49 241 56 305 3 33 8 69 10 80
24 119 23 655 0 781 -2 10 -7 44 -10 74 -4 30 -11 78 -16 105 -5 28 -12 61
-14 75 -43 235 -129 513 -231 745 -36 83 -130 267 -160 315 -14 22 -25 43 -25
46 0 19 -226 344 -295 425 -16 19 -52 62 -80 95 -172 206 -564 543 -766 659
-10 6 -64 38 -121 71 -248 148 -633 305 -897 365 -25 6 -53 12 -61 14 -8 2
-60 13 -115 24 -99 20 -133 26 -230 37 -27 3 -61 7 -75 10 -67 10 -483 26
-493 18z"/>
</g>
</svg>
